<svg width="96" height="26" viewBox="0 0 96 26" fill="none" xmlns="http://www.w3.org/2000/svg">
<g clip-path="url(#clip0)">
<path d="M3.14162 14.9051L6.82141 15.2131C4.0928 14.4529 3.34338 10.9311 5.53395 9.12206L9.91511 5.51365V0L2.83418 5.82157C1.86379 6.62023 1.11437 7.63058 0.633986 8.7564C0.566731 8.91998 0.499495 9.07395 0.461064 9.24715C-0.134618 11.4122 0.979875 14.3086 3.14162 14.9051Z" fill="url(#paint0_linear)"/>
<path d="M16.6214 11.3739L13.0185 10.7869C15.7471 11.5471 16.4965 15.0689 14.3059 16.8779L9.9248 20.4863V26L17.0057 20.1784C17.9761 19.3798 18.7255 18.3694 19.2059 17.2436C19.2732 17.0896 19.3308 16.926 19.3788 16.7625C19.9649 14.5878 18.7832 11.9705 16.6214 11.3739Z" fill="url(#paint1_linear)"/>
<path d="M19.8304 14.1642C19.8304 10.6713 17.4957 7.6017 14.133 6.67795L9.9248 5.52325V9.93994L13.0185 10.7964L16.5349 11.7682C18.6967 12.3648 19.9649 14.5972 19.3692 16.7623C19.3212 16.9258 19.2635 17.0894 19.2059 17.2434C19.6094 16.2811 19.8304 15.2323 19.8304 14.1642Z" fill="#9D9DAD"/>
<path d="M56.2235 17.9559C55.5125 17.9559 54.8304 17.9559 54.1098 17.9559C54.1098 17.5037 54.1098 16.5415 54.1098 16.5415C54.1098 16.5415 54.0809 16.5607 54.0521 16.5896C54.0329 16.6281 54.0041 16.6665 53.9753 16.705C53.0914 17.802 51.9096 18.2735 50.5453 18.2157C48.4892 18.1291 47.0385 17.0707 46.2122 15.2039C45.4916 13.5681 45.5877 11.9323 46.4236 10.3446C47.3459 8.59331 49.2482 7.59259 51.2082 7.80428C52.3323 7.92937 53.2739 8.39126 53.9945 9.27652C54.0137 9.29576 54.0233 9.31501 54.0425 9.32463C54.0521 9.33425 54.0713 9.33424 54.1098 9.36311C54.1098 8.92048 54.1098 8.03522 54.1098 8.03522H56.2331C56.2235 8.03522 56.2235 14.6362 56.2235 17.9559ZM51.0257 9.81536C49.2674 9.78649 47.9128 11.1144 47.8839 12.9234C47.8551 14.7517 49.1522 16.1373 50.9392 16.1662C52.7359 16.195 54.081 14.8768 54.1194 13.0485C54.1482 11.2202 52.8415 9.85385 51.0257 9.81536Z" fill="#131323"/>
<path d="M90.8212 7.7753C87.8909 7.76568 85.5946 10.0462 85.585 12.9714C85.5754 15.8966 87.8716 18.2156 90.7828 18.2253C93.6843 18.2349 95.9902 15.9255 95.9998 13.0195C96.0094 10.0847 93.742 7.78492 90.8212 7.7753ZM90.7828 16.1372C89.063 16.1372 87.7179 14.7419 87.7179 12.981C87.7275 11.2201 89.0822 9.85375 90.802 9.85375C92.5218 9.86338 93.8573 11.2394 93.8477 13.0003C93.8573 14.7612 92.493 16.1468 90.7828 16.1372Z" fill="#131323"/>
<path d="M60.8549 13.4045V17.9559H58.7412V4.07074H60.8549V12.4038L60.903 12.3653L64.6788 8.03519H67.2825L62.9494 12.8945L67.4362 17.9463H64.8902L60.9126 13.4334L60.8549 13.4045Z" fill="#131323"/>
<path d="M77.3322 17.9559C76.6309 17.9559 75.9391 17.9559 75.2377 17.9559C75.2377 17.5614 75.2377 17.1669 75.2377 16.7435C75.1897 16.782 75.1609 16.8012 75.1417 16.8205C74.5652 17.6576 73.7389 18.0714 72.7589 18.1965C71.8654 18.3023 70.9911 18.1868 70.1936 17.7346C69.4731 17.3208 68.9831 16.705 68.6852 15.9352C68.4642 15.3579 68.3778 14.7517 68.3682 14.1358C68.3682 11.9227 68.3682 8.04481 68.3682 8.04481H70.5107C70.5107 8.04481 70.5011 11.99 70.5203 13.8183C70.5203 14.1358 70.5491 14.463 70.6356 14.7709C70.8662 15.6273 71.4619 16.0795 72.317 16.195C72.9991 16.2816 73.6429 16.195 74.2193 15.7909C74.815 15.3675 75.084 14.7516 75.1705 14.0492C75.2089 13.7701 75.2281 13.4911 75.2281 13.2024C75.2377 11.5763 75.2281 8.04481 75.2281 8.04481H77.3322C77.3322 8.03519 77.3322 14.6362 77.3322 17.9559Z" fill="#131323"/>
<path d="M79.8486 8.03512H81.9431V9.66132C81.9431 9.66132 81.9624 9.64206 81.9816 9.62281C82.6061 8.38152 83.6437 7.87154 84.9792 7.85229C84.9792 8.63171 84.9792 9.39187 84.9792 10.152C84.6141 10.1617 84.4027 10.1809 84.1145 10.229C82.9135 10.4119 82.0873 11.2875 81.9816 12.5095C81.9624 12.7212 81.9528 12.9329 81.9528 13.1446C81.9528 14.6457 81.9528 17.9558 81.9528 17.9558H79.8486V8.03512Z" fill="#131323"/>
<path d="M43.9257 10.5851C43.7048 9.60363 43.1859 8.8146 42.302 8.29499C41.5526 7.85236 40.7359 7.73689 39.8808 7.79463C38.8432 7.87161 37.9689 8.3431 37.3348 9.15139C37.3156 9.18025 37.2868 9.18988 37.2195 9.24761C37.2195 8.39122 37.2195 4.07074 37.2195 4.07074H35.125V17.9559H37.2387C37.2387 17.9559 37.2387 14.4437 37.2387 12.8464C37.2387 12.5673 37.2483 12.2787 37.2867 11.9996C37.4117 11.0663 37.8152 10.3253 38.7279 9.95966C39.2467 9.75759 39.7944 9.73835 40.342 9.8442C41.1491 9.99816 41.7352 10.5755 41.8793 11.3934C41.9273 11.6821 41.9561 11.99 41.9561 12.2883C41.9657 15.9929 41.9561 17.9559 41.9561 17.9559H44.0891C44.0891 17.9559 44.0987 13.8183 44.0795 11.8457C44.0795 11.4223 44.0218 10.9893 43.9257 10.5851Z" fill="#131323"/>
<path d="M31.4646 12.4903C30.8498 12.2786 29.668 12.0477 28.6784 11.7494C27.3621 11.3549 27.5543 10.3349 28.0347 9.96925C28.6592 9.46888 30.4366 9.67096 32.4638 10.6043L33.0788 8.7472C32.3197 8.39117 30.4078 7.77534 28.909 7.83307C26.1227 7.93892 25.3925 9.80566 25.4982 11.047C25.5655 11.8264 25.8921 12.9426 27.9386 13.568C28.3998 13.7124 29.3894 13.9048 29.8505 14.0491C30.2445 14.1742 31.4935 14.4148 31.3013 15.3289C31.1188 16.2334 29.9658 16.2719 29.5527 16.2719C28.1596 16.2719 26.4686 15.4155 25.8537 14.9633C25.5847 15.7331 25.1523 17.0033 25.1523 17.0033C25.1523 17.0033 27.2276 18.2253 29.7352 18.2253C32.3197 18.2253 33.4439 16.5991 33.4823 15.252C33.5111 14.4918 33.367 13.1639 31.4646 12.4903Z" fill="#131323"/>
<path d="M3.30507 14.241C1.14332 13.6444 -0.12491 11.412 0.470772 9.24699C0.518811 9.08341 0.566845 8.92945 0.634099 8.76587C0.220965 9.72811 0 10.7673 0 11.8354C0 15.3284 2.33469 18.3979 5.69742 19.3217L9.9056 20.4764V16.0597L6.8119 15.2033L3.30507 14.241Z" fill="#9D9DAD"/>
</g>
<defs>
<linearGradient id="paint0_linear" x1="2.82966" y1="12.9639" x2="9.85058" y2="3.84219" gradientUnits="userSpaceOnUse">
<stop offset="1.33195e-07" stop-color="#545469"/>
<stop offset="1" stop-color="#9D9DAD"/>
</linearGradient>
<linearGradient id="paint1_linear" x1="16.8718" y1="13.2095" x2="9.95556" y2="22.1952" gradientUnits="userSpaceOnUse">
<stop offset="1.33195e-07" stop-color="#545469"/>
<stop offset="1" stop-color="#9D9DAD"/>
</linearGradient>
<clipPath id="clip0">
<path d="M0 0H96V26H0V0Z" fill="white"/>
</clipPath>
</defs>
</svg>
