<?xml version="1.0" standalone="no"?>
<!DOCTYPE svg PUBLIC "-//W3C//DTD SVG 20010904//EN"
 "http://www.w3.org/TR/2001/REC-SVG-20010904/DTD/svg10.dtd">
<svg version="1.0" xmlns="http://www.w3.org/2000/svg"
 width="512.000000pt" height="512.000000pt" viewBox="0 0 512.000000 512.000000"
 preserveAspectRatio="xMidYMid meet">
<metadata>
Created by potrace 1.11, written by Peter Selinger 2001-2013
</metadata>
<g transform="translate(0.000000,512.000000) scale(0.100000,-0.100000)"
fill="#000000" stroke="none">
<path d="M2341 5115 c-1 -6 -18 -12 -38 -13 -20 -2 -42 -7 -49 -13 -8 -7 -14
-7 -19 1 -4 7 -12 7 -24 0 -10 -5 -21 -7 -24 -4 -3 3 -14 1 -26 -5 -14 -8 -22
-8 -27 0 -4 7 -9 8 -13 1 -3 -5 -24 -13 -46 -17 -22 -4 -44 -8 -50 -9 -5 -2
-28 -6 -50 -10 -22 -4 -51 -12 -65 -17 -13 -6 -40 -12 -59 -15 -19 -2 -38 -9
-41 -15 -4 -5 -11 -9 -16 -8 -5 1 -16 0 -24 -3 -8 -4 -24 -9 -35 -14 -11 -4
-28 -9 -37 -10 -9 -2 -59 -22 -110 -45 -51 -22 -99 -41 -105 -42 -7 0 -13 -4
-13 -8 0 -6 -22 -15 -44 -17 -5 0 -12 -4 -15 -9 -3 -5 -28 -20 -56 -33 -27
-14 -51 -28 -53 -32 -2 -5 -8 -8 -14 -8 -5 0 -28 -13 -51 -29 -23 -15 -52 -31
-65 -35 -12 -4 -20 -12 -17 -17 4 -5 1 -9 -5 -9 -16 0 -131 -81 -137 -96 -3
-8 -9 -11 -14 -8 -5 3 -9 0 -9 -5 0 -6 -7 -11 -16 -11 -8 0 -13 -4 -9 -9 3 -5
-3 -12 -13 -16 -11 -3 -39 -24 -63 -46 -82 -77 -198 -189 -194 -189 2 0 -14
-18 -36 -40 -22 -22 -38 -40 -35 -40 2 0 -8 -13 -22 -28 -46 -48 -82 -94 -82
-103 0 -5 -4 -9 -10 -9 -5 0 -10 -6 -10 -14 0 -8 -7 -16 -15 -20 -8 -3 -15
-12 -15 -19 0 -8 -9 -22 -20 -32 -11 -10 -20 -22 -20 -27 0 -5 -11 -24 -25
-42 -14 -18 -25 -38 -25 -44 0 -7 -3 -12 -7 -12 -5 0 -13 -10 -19 -23 -6 -12
-41 -79 -77 -149 -36 -69 -63 -129 -59 -132 3 -3 1 -6 -5 -6 -5 0 -10 -6 -10
-12 0 -7 -7 -29 -15 -48 -24 -54 -31 -74 -32 -90 0 -8 -6 -21 -13 -28 -11 -12
-18 -46 -10 -55 1 -2 -3 -10 -9 -18 -9 -11 -23 -52 -25 -74 0 -2 -5 -19 -10
-37 -6 -18 -12 -42 -14 -53 -3 -11 -7 -31 -11 -45 -3 -14 -7 -38 -10 -55 -3
-16 -8 -37 -11 -45 -3 -8 -7 -28 -8 -45 -1 -16 -6 -52 -10 -80 -4 -27 -7 -63
-6 -78 1 -16 -2 -26 -7 -23 -4 2 -8 -4 -8 -14 0 -10 3 -17 7 -14 8 5 6 -16 -3
-31 -10 -15 -4 -327 7 -349 7 -15 5 -17 -6 -11 -12 7 -12 6 -1 -7 6 -8 12 -26
11 -39 0 -13 2 -44 6 -69 3 -25 7 -63 9 -85 2 -22 7 -49 11 -59 5 -10 9 -31
11 -45 1 -14 3 -26 4 -26 3 0 10 -38 14 -72 2 -18 7 -38 13 -45 5 -7 9 -22 9
-33 -1 -11 2 -22 6 -25 4 -3 10 -17 12 -30 2 -14 6 -27 7 -30 1 -3 3 -9 4 -15
1 -5 7 -23 13 -38 7 -16 12 -33 12 -38 0 -5 4 -17 9 -27 5 -9 20 -44 32 -77
13 -33 25 -62 28 -65 3 -3 7 -11 8 -17 5 -23 94 -197 104 -204 6 -3 11 -10 11
-15 1 -13 11 -38 20 -49 5 -5 35 -51 67 -100 32 -50 65 -98 75 -108 10 -9 15
-17 12 -17 -3 0 3 -10 13 -22 11 -13 29 -34 40 -48 70 -85 107 -125 198 -217
56 -57 105 -103 108 -103 3 0 16 -10 29 -22 29 -29 104 -90 125 -102 9 -5 21
-14 27 -20 6 -6 22 -18 34 -26 13 -8 31 -22 41 -32 9 -9 19 -14 22 -12 2 2 10
-2 17 -11 7 -8 19 -15 26 -15 8 0 14 -4 14 -9 0 -5 8 -11 18 -14 26 -9 106
-58 114 -71 4 -6 8 -7 8 -2 0 4 11 1 25 -8 13 -9 31 -16 40 -16 9 0 13 -4 10
-10 -3 -5 3 -10 14 -10 12 0 21 -4 21 -10 0 -5 3 -9 8 -9 4 1 23 -4 42 -11 19
-8 37 -12 39 -11 2 1 7 -1 10 -6 6 -8 104 -50 131 -55 8 -2 17 -6 20 -10 3 -4
15 -9 25 -11 11 -2 27 -7 35 -10 12 -5 48 -15 115 -33 6 -1 25 -7 43 -13 17
-5 32 -8 32 -5 0 3 8 0 18 -5 10 -5 36 -12 58 -15 22 -4 51 -9 64 -12 14 -3
36 -7 50 -9 14 -2 25 -4 25 -5 0 -8 169 -14 400 -14 311 1 344 2 363 17 8 6
12 6 12 -1 0 -8 9 -8 30 0 17 5 37 7 46 4 8 -3 12 -2 9 4 -4 6 8 11 27 12 31
1 46 3 58 8 9 3 75 18 105 24 6 1 16 5 23 9 6 5 12 5 12 1 0 -3 7 -1 15 6 8 7
15 10 15 6 0 -5 17 0 95 30 11 4 24 6 29 5 4 -1 14 3 20 9 7 5 16 7 19 3 4 -3
7 -1 7 5 0 7 3 11 8 10 4 -1 20 4 35 10 16 7 34 12 40 12 7 0 21 7 31 15 10 8
23 12 27 9 5 -3 9 -1 9 4 0 5 10 13 23 17 12 4 24 8 27 10 3 1 20 8 38 16 17
7 32 17 32 21 0 4 9 8 19 8 11 0 21 3 23 8 1 4 24 18 51 32 26 13 47 29 47 34
0 5 3 7 6 3 4 -3 26 7 49 23 23 16 45 26 49 23 3 -4 6 -2 6 4 0 6 24 26 53 44
28 19 57 38 63 44 49 45 73 63 78 58 3 -3 8 2 12 11 3 9 13 16 21 16 8 0 11 4
8 10 -3 5 -1 10 4 10 6 0 26 15 45 32 19 18 43 40 53 48 10 8 29 28 41 44 12
16 22 26 22 22 0 -4 21 17 48 46 26 28 58 64 72 78 14 14 38 43 55 65 16 22
35 46 42 53 7 7 20 26 30 42 9 17 21 30 25 30 4 0 8 5 8 11 0 6 6 17 13 24 30
34 35 43 30 49 -4 3 -1 6 5 6 7 0 12 7 12 15 0 8 4 15 9 15 5 0 14 14 21 30 7
17 17 30 22 30 5 0 7 4 4 9 -3 5 1 14 9 21 8 7 12 16 9 21 -3 5 0 9 5 9 6 0
11 5 11 10 0 6 11 28 25 50 14 22 22 40 18 40 -5 0 -3 4 2 8 12 8 51 93 48
103 -1 4 4 13 12 19 8 7 15 21 15 31 0 11 5 19 12 19 6 0 9 3 5 6 -3 4 0 19 9
35 8 16 12 29 8 29 -4 0 -1 7 6 15 7 8 9 15 6 15 -4 0 0 10 8 21 8 12 12 28 9
35 -3 8 0 14 7 14 7 0 10 7 6 15 -3 8 -2 15 2 15 4 0 8 10 9 22 1 11 6 24 10
27 5 3 9 21 8 39 0 17 3 32 6 32 6 0 27 76 33 115 1 11 6 40 11 65 5 25 8 49
7 53 -1 4 2 17 8 27 8 15 8 20 -2 20 -9 0 -9 3 2 10 13 8 15 56 15 332 0 302
-4 389 -16 413 -2 6 -4 26 -4 47 0 20 -3 34 -6 32 -6 -3 -24 112 -21 129 1 4
-3 7 -8 7 -6 0 -10 16 -10 35 0 20 -5 35 -12 35 -6 0 -9 3 -5 6 3 3 -2 29 -10
57 -8 29 -16 57 -17 62 -1 6 -8 21 -16 35 -7 14 -12 26 -11 28 5 6 -23 82 -31
82 -5 0 -8 6 -6 13 1 6 -7 32 -19 57 -29 65 -36 84 -35 93 1 4 -2 7 -8 7 -5 0
-10 7 -10 15 0 8 -5 15 -10 15 -6 0 -9 4 -8 8 3 9 -42 102 -57 118 -6 6 -19
30 -29 53 -11 22 -23 41 -28 41 -4 0 -8 4 -8 10 0 8 -57 98 -70 110 -3 3 -17
21 -30 40 -30 43 -40 56 -62 81 -10 10 -18 22 -18 25 0 4 -13 20 -30 35 -16
16 -28 29 -25 29 2 0 -18 23 -45 50 -27 28 -47 50 -43 50 3 0 -6 10 -21 21
-15 12 -47 40 -70 63 -23 22 -61 57 -85 76 -71 58 -85 70 -109 91 -12 10 -25
19 -28 19 -3 0 -19 10 -34 23 -15 12 -37 29 -50 37 -12 8 -29 21 -36 28 -8 7
-14 11 -14 7 0 -3 -15 5 -33 19 -19 15 -39 26 -45 26 -7 0 -12 4 -12 9 0 8
-37 24 -52 22 -5 -1 -8 3 -8 7 0 5 -19 17 -42 28 -24 10 -45 21 -48 24 -10 11
-65 33 -77 31 -7 -1 -13 3 -13 8 0 9 -40 27 -49 22 -2 -2 -7 1 -10 6 -6 10
-129 58 -146 58 -5 0 -12 3 -15 7 -3 4 -17 10 -30 12 -14 2 -26 5 -27 7 -2 1
-6 2 -10 4 -5 1 -15 5 -23 8 -8 4 -24 8 -35 10 -11 2 -27 7 -35 10 -14 5 -51
14 -95 22 -11 2 -22 4 -25 6 -3 1 -9 3 -15 4 -5 2 -12 4 -15 5 -3 1 -16 3 -30
6 -14 2 -38 7 -55 10 -38 6 -75 11 -211 28 -11 2 -27 7 -34 11 -9 5 -11 4 -6
-3 4 -7 2 -12 -3 -12 -6 0 -11 5 -11 11 0 8 -4 8 -13 0 -10 -8 -17 -7 -25 1
-8 8 -16 8 -28 -3 -11 -9 -15 -9 -10 -2 10 17 -255 16 -266 -1 -5 -8 -8 -7 -8
2 0 6 -5 12 -11 12 -5 0 -7 -4 -4 -10 3 -5 -3 -10 -14 -10 -10 0 -22 6 -24 13
-3 6 -6 7 -6 2z"/>
</g>
</svg>
