<svg xmlns="http://www.w3.org/2000/svg" viewBox="0 0 24 24">
    <path fill-rule="evenodd" d="M13.945 5.055a2.75 2.75 0 1 0-3.89 3.89 2.75 2.75 0 0 0 3.89-3.89Zm-4.95-1.06a4.25 4.25 0 1 1 6.01 6.01 4.25 4.25 0 0 1-6.01-6.01ZM6.105 14.22c1.627-.947 3.762-1.463 5.895-1.463 2.133 0 4.268.516 5.895 1.463 1.621.944 2.855 2.397 2.855 4.279v1A1.75 1.75 0 0 1 19 21.25H5a1.75 1.75 0 0 1-1.75-1.75v-1c0-1.882 1.234-3.335 2.855-4.279Zm.754 1.296c-1.367.796-2.109 1.839-2.109 2.983v1c0 .138.112.25.25.25h14a.25.25 0 0 0 .25-.25v-1c0-1.144-.742-2.187-2.11-2.983-1.36-.792-3.225-1.259-5.14-1.259-1.915 0-3.78.467-5.14 1.26Z" clip-rule="evenodd"/>
</svg>
