<svg xmlns="http://www.w3.org/2000/svg" viewBox="0 0 24 24">
    <path fill-rule="evenodd" d="M9.72 4.914a.558.558 0 0 0-.644-.105l-.55.275a.563.563 0 0 0-.31.489l-.018.836A2.058 2.058 0 0 1 6.14 8.423h-.837a.559.559 0 0 0-.53.382l-.194.584a.558.558 0 0 0 .128.564l.58.606c.774.808.76 2.087-.031 2.879l-.592.592a.558.558 0 0 0-.105.644l.275.55a.559.559 0 0 0 .487.308l.838.018a2.058 2.058 0 0 1 2.014 2.058v.837c0 .24.154.453.382.53m0 0 .583.194a.558.558 0 0 0 .564-.127l.606-.58a2.059 2.059 0 0 1 2.879.032l.592.592c.17.17.429.212.644.104l.55-.275a.558.558 0 0 0 .308-.486l.018-.839a2.058 2.058 0 0 1 2.058-2.014h.837a.56.56 0 0 0 .53-.382l.194-.583a.558.558 0 0 0-.127-.563l-.58-.606a2.059 2.059 0 0 1 .032-2.88l.592-.591c.17-.17.212-.43.104-.644l-.275-.55a.558.558 0 0 0-.486-.309l-.839-.018a2.058 2.058 0 0 1-2.014-2.058v-.837a.559.559 0 0 0-.382-.53l-.583-.193a.56.56 0 0 0-.564.126l-.605.579a2.059 2.059 0 0 1-2.88-.031l-.591-.592M8.405 3.467a2.058 2.058 0 0 1 2.376.386l.592.592a.558.558 0 0 0 .78.008l.607-.58a2.06 2.06 0 0 1 2.075-.464l.582.194a2.06 2.06 0 0 1 1.408 1.952v.837c0 .305.243.552.546.558l.838.018a2.059 2.059 0 0 1 1.797 1.138l.275.55a2.06 2.06 0 0 1-.385 2.376l-.592.592a.558.558 0 0 0-.009.78l.58.607c.528.551.708 1.349.466 2.074l-.194.583a2.06 2.06 0 0 1-1.953 1.408h-.837a.557.557 0 0 0-.558.546l-.018.838a2.059 2.059 0 0 1-1.137 1.797l-.55.275a2.06 2.06 0 0 1-2.376-.385l-.592-.592a.559.559 0 0 0-.781-.009l-.606.58a2.058 2.058 0 0 1-2.075.466l-.583-.194a2.06 2.06 0 0 1-1.408-1.953v-.837a.557.557 0 0 0-.546-.558l-.837-.018a2.06 2.06 0 0 1-1.798-1.137l-.275-.55a2.058 2.058 0 0 1 .386-2.376l.592-.592a.559.559 0 0 0 .008-.781l-.58-.606a2.058 2.058 0 0 1-.466-2.076l.194-.583a2.06 2.06 0 0 1 1.952-1.408h.837a.557.557 0 0 0 .558-.546l.018-.84a2.063 2.063 0 0 1 1.139-1.795l.55-.275Zm4.58 7.296a1.75 1.75 0 1 0-2.474 2.474 1.75 1.75 0 0 0 2.475-2.474ZM9.45 9.703a3.25 3.25 0 1 1 4.596 4.595A3.25 3.25 0 0 1 9.45 9.702Z" clip-rule="evenodd"/>
</svg>
