<svg xmlns="http://www.w3.org/2000/svg" viewBox="0 0 24 24">
    <path fill-rule="evenodd" d="M16.455 4.587A6.296 6.296 0 0 0 5.706 9.041v3.431l-1.038 1.04h-.001a2.757 2.757 0 0 0-.813 1.95l.75.001-.75.003a2.65 2.65 0 0 0 2.651 2.642l10.997.003a2.65 2.65 0 0 0 2.65-2.643l-.75-.002h.75a2.756 2.756 0 0 0-.81-1.95l-.002-.001-1.038-1.04V9.041c0-1.67-.665-3.273-1.847-4.454ZM12 4.247v-.75.75a4.796 4.796 0 0 1 4.802 4.794v3.745c0 .199.079.39.22.53l1.259 1.26.002.002c.236.235.369.554.37.887a1.15 1.15 0 0 1-1.15 1.146h-.001l-10.997-.003a1.15 1.15 0 0 1-1.15-1.145c0-.333.134-.653.37-.887l.002-.002 1.26-1.26a.75.75 0 0 0 .22-.531V9.042A4.796 4.796 0 0 1 12 4.245Zm-1.48 15.506a.75.75 0 0 0 0 1.5h2.959a.75.75 0 1 0 0-1.5H10.52Z" clip-rule="evenodd"/>
</svg>
