<svg xmlns="http://www.w3.org/2000/svg" viewBox="0 0 24 24">
    <path fill-rule="evenodd" d="m16.247 4.052 3.7 3.7a2.751 2.751 0 0 1-.419 4.234l-1.648 1.1a.75.75 0 1 1-.832-1.248l1.648-1.1a1.25 1.25 0 0 0 .19-1.925l-3.7-3.7a1.25 1.25 0 0 0-1.925.19l-1.099 1.65a.75.75 0 0 1-1.248-.833l1.1-1.648a2.751 2.751 0 0 1 4.233-.42Zm-11.28-.085a.75.75 0 0 1 1.06 0L9.983 7.92a.746.746 0 0 1 .017.02L16.06 14a.952.952 0 0 1 .02.02l4.454 4.454a.75.75 0 0 1-1.061 1.06l-3.526-3.526-.8 3.197a1.75 1.75 0 0 1-2.935.813l-3.584-3.584-4.101 4.1a.75.75 0 0 1-1.06-1.06l4.1-4.1-3.584-3.585a1.75 1.75 0 0 1 .813-2.936l3.197-.799-3.026-3.026a.75.75 0 0 1 0-1.06ZM9.23 9.29l-4.07 1.018a.25.25 0 0 0-.116.42l8.228 8.228a.25.25 0 0 0 .42-.116l1.018-4.07-5.48-5.48Z" clip-rule="evenodd"/>
</svg>
